<svg width="190" height="44" viewBox="0 0 190 44" fill="none" xmlns="http://www.w3.org/2000/svg">
<path d="M106.615 10.6923C106.615 5.15388 109.769 1.84619 114.692 1.84619C118.769 1.84619 121.923 4.46158 122.231 8.30773H118.769C118.462 6.23081 116.846 4.84619 114.769 4.84619C112.077 4.84619 110.308 7.07696 110.308 10.6923C110.308 14.3077 112 16.6154 114.769 16.6154C116.923 16.6154 118.385 15.3847 118.769 13.3077H122.231C121.846 17.1539 118.923 19.5385 114.692 19.5385C109.692 19.5385 106.615 16.1539 106.615 10.6923Z" fill="white"/>
<path d="M123.538 15.5386C123.538 13.231 125.308 11.9233 128.462 11.6925L131.692 11.5387V10.6925C131.692 9.53865 130.846 8.84634 129.538 8.84634C128.231 8.84634 127.462 9.46173 127.231 10.3848H124.077C124.231 7.92327 126.308 6.23096 129.692 6.23096C132.923 6.23096 135.077 7.92326 135.077 10.4617V19.231H131.769V17.3079H131.692C131 18.6925 129.385 19.4617 127.846 19.4617C125.385 19.3848 123.538 17.8463 123.538 15.5386ZM131.692 14.5387V13.6156L129 13.7694C127.692 13.8463 127 14.4617 127 15.3079C127 16.231 127.769 16.8463 128.923 16.8463C130.462 16.9233 131.692 15.9233 131.692 14.5387Z" fill="white"/>
<path d="M148.923 15.3079C148.538 17.7694 146.231 19.4617 143.154 19.4617C139.231 19.4617 136.923 16.9233 136.923 12.9233C136.923 8.84634 139.308 6.23096 143.077 6.23096C146.769 6.23096 149.077 8.76942 149.077 12.6156V13.6925H140.308V13.9233C140.308 15.7694 141.462 17.0002 143.231 17.0002C144.462 17.0002 145.462 16.3848 145.769 15.3848L148.923 15.3079ZM140.308 11.5387H145.692C145.615 9.92327 144.538 8.76942 143 8.76942C141.538 8.76942 140.462 9.92327 140.308 11.5387Z" fill="white"/>
<path d="M150.923 2.07715H154.385V19.1541H150.923V2.07715Z" fill="white"/>
<path d="M168.461 19.2309H165.154V16.9232H165.077C164.461 18.5386 163.154 19.4616 161.308 19.4616C158.538 19.4616 156.769 17.6924 156.769 14.6924V6.53857H160.231V14.0001C160.231 15.6924 161.077 16.6155 162.615 16.6155C164.154 16.6155 165.154 15.5386 165.154 13.8463V6.53857H168.615V19.2309H168.461Z" fill="white"/>
<path d="M170.692 6.53839H174V8.84608H174.077C174.615 7.30762 176 6.30762 177.692 6.30762C179.538 6.30762 180.846 7.23069 181.231 8.923H181.308C181.846 7.30762 183.385 6.30762 185.231 6.30762C187.692 6.30762 189.385 7.99992 189.385 10.5384V19.2307H185.923V11.3845C185.923 9.923 185.154 9.07685 183.846 9.07685C182.538 9.07685 181.692 9.99992 181.692 11.4615V19.1538H178.385V11.3076C178.385 9.923 177.615 9.15377 176.308 9.15377C175 9.15377 174.077 10.1538 174.077 11.5384V19.2307H170.615L170.692 6.53839Z" fill="white"/>
<path d="M117.461 40.7691H107.308V23.6152H108.923V39.3075H117.461V40.7691Z" fill="white"/>
<path d="M118.846 37.3077C118.846 35.2307 120.385 33.923 123.231 33.6923L127.077 33.4615V32.3846C127.077 30.6153 125.923 29.5384 124 29.5384C122.154 29.5384 121 30.4615 120.769 31.923H119.231C119.385 29.6923 121.231 28.1538 124 28.1538C126.846 28.1538 128.538 29.6923 128.538 32.2307V40.6923H127.077V38.3077C126.385 39.8461 124.692 40.8461 122.846 40.8461C120.538 40.923 118.846 39.4615 118.846 37.3077ZM127.077 36.1538V34.7692L123.461 35C121.538 35.1538 120.461 36 120.461 37.3077C120.461 38.6153 121.615 39.5384 123.308 39.5384C125.385 39.6153 127.077 38.0769 127.077 36.1538Z" fill="white"/>
<path d="M132.923 38.1537V40.7691H131.385V23.6152H132.923V30.9999C133.615 29.3075 135.231 28.2306 137.154 28.2306C140.231 28.2306 142.385 30.7691 142.385 34.6152C142.385 38.4614 140.308 40.9999 137.154 40.9999C135.231 40.9229 133.692 39.846 132.923 38.1537ZM133 34.6152C133 37.6152 134.615 39.6152 136.923 39.6152C139.308 39.6152 140.846 37.6922 140.846 34.6152C140.846 31.6152 139.308 29.6152 136.923 29.6152C134.615 29.6152 133 31.6152 133 34.6152Z" fill="white"/>
<path d="M148.769 28.231C151.308 28.231 153.077 29.6925 153.231 31.8463H151.692C151.538 30.3848 150.385 29.4617 148.692 29.4617C147 29.4617 145.846 30.3848 145.846 31.6156C145.846 32.6156 146.538 33.231 148.231 33.6156L150.077 34.0771C152.538 34.6925 153.462 35.6156 153.462 37.3848C153.462 39.4617 151.538 40.9233 148.692 40.9233C146.077 40.9233 144.154 39.4617 143.923 37.3079H145.462C145.692 38.7694 146.923 39.6925 148.769 39.6925C150.615 39.6925 151.846 38.8463 151.846 37.5387C151.846 36.4617 151.231 35.9233 149.615 35.4617L147.615 35.0002C145.385 34.4617 144.308 33.3848 144.308 31.7694C144.308 29.6925 146.154 28.231 148.769 28.231Z" fill="white"/>
<path d="M32.3077 33.6925C31.2307 32.6156 29.4615 32.3848 28.1538 33.231C26.0769 34.5387 23.5384 35.231 20.923 35.231C13.3077 35.231 7.15381 29.154 7.15381 21.6156C7.15381 14.0771 13.3077 8.00019 20.923 8.00019C23.6153 8.00019 26.0769 8.76942 28.1538 10.0002C29.4615 10.8463 31.2307 10.6156 32.3077 9.53865C33.8461 8.00019 33.5384 5.3848 31.6153 4.23096C28.4615 2.30788 24.7692 1.23096 20.8461 1.23096C9.4615 1.23096 0.153809 10.3079 0.153809 21.6156C0.153809 32.8463 9.4615 42.0002 20.8461 42.0002C24.7692 42.0002 28.4615 40.9233 31.6153 39.0002C33.5384 37.8463 33.923 35.231 32.3077 33.6925Z" fill="white"/>
<path d="M45.1538 41.6923C44.2307 41.6923 43.3846 41.3847 42.6923 40.6923C41.3077 39.3077 41.3077 37.1539 42.6923 35.7693L55.2307 23.1539C56.1538 22.2308 56.1538 20.7693 55.2307 19.9231L42.6923 7.30773C41.3077 5.92311 41.3077 3.76927 42.6923 2.38465C44.0769 1.00004 46.2307 1.00004 47.6153 2.38465L63.8461 19.1539C65.4615 20.7693 65.4615 22.8462 63.8461 24.3847L47.6153 40.6154C46.923 41.3077 46.0769 41.6923 45.1538 41.6923Z" fill="white"/>
<path d="M60.2307 42.7693V39.8462H93.0769V42.7693H60.2307Z" fill="white"/>
</svg>
