<svg width="69" height="80" viewBox="0 0 69 80" fill="none" xmlns="http://www.w3.org/2000/svg">
<path fill-rule="evenodd" clip-rule="evenodd" d="M2.14573 18.3754V36.7507H6.62752H11.1093V30.9804V25.2101H14.1094C15.7595 25.2101 17.5369 25.157 18.059 25.0921C20.7203 24.7615 22.9836 23.8081 25.0685 22.1394C27.2868 20.3638 28.6387 18.331 29.3447 15.7094C29.6094 14.7266 29.7496 14.4277 29.7496 12.605C29.7496 10.7867 29.609 10.4822 29.3472 9.51048C28.6201 6.81176 26.8927 4.32437 24.5207 2.56056C23.4944 1.79731 21.7265 0.88549 20.6595 0.569076C18.8103 0.0206162 18.4247 0 10.0302 0H2.14573V18.3754ZM39.7555 0.0747339C39.7144 0.115742 39.6807 8.28381 39.6807 18.226V36.3025H53.6863H67.6919V31.9888V27.6751H58.1401H48.5883L48.6172 13.9287C48.6402 2.98263 48.6174 0.164146 48.5052 0.0928852C48.3358 -0.0145658 39.8624 -0.0322689 39.7555 0.0747339ZM17.6242 8.29188C19.5805 8.90891 20.72 10.6527 20.6126 12.8651C20.5267 14.6339 19.5976 16.062 18.0561 16.7942C17.4433 17.0852 17.4219 17.0871 14.2746 17.1212L11.1093 17.1556V12.6114V8.06723H14.0107C16.6028 8.06723 16.988 8.0912 17.6242 8.29188ZM11.6591 46.2454C11.5944 46.4155 11.1201 47.7899 10.6052 49.2997C10.0904 50.8095 9.18864 53.444 8.60119 55.1541C8.01385 56.8641 7.56254 58.2633 7.59828 58.2633C7.63413 58.2633 7.60063 58.3389 7.52388 58.4314C7.44713 58.5238 7.42192 58.5994 7.46786 58.5994C7.5138 58.5994 7.48209 58.6828 7.39749 58.7848C7.31301 58.8866 7.25632 58.9875 7.27178 59.0089C7.28724 59.0301 7.29598 59.0602 7.29116 59.0756C7.28646 59.0911 7.2664 59.1793 7.24657 59.2717C7.22674 59.3641 6.88265 60.3978 6.48209 61.5686C6.08141 62.7395 4.99458 65.916 4.06696 68.6275C3.13923 71.3389 1.89889 74.9611 1.31066 76.6768C0.722311 78.3924 0.240967 79.8419 0.240967 79.898C0.240967 79.9575 2.03492 80 4.54808 80H8.8552L9.54057 77.8431C9.9176 76.6569 10.3027 75.4467 10.3965 75.1541L10.5671 74.6218H16.7696H22.9721L23.5331 76.3866C23.8416 77.3572 24.2252 78.5672 24.3853 79.0756L24.6765 80H28.9854C31.5419 80 33.2942 79.958 33.2942 79.8966C33.2942 79.8398 32.7334 78.1634 32.048 76.1711C31.3626 74.1789 30.1589 70.6078 29.3732 68.2353C28.077 64.322 26.4559 59.5575 23.0062 49.5238L21.7929 45.9944L16.7849 45.9653L11.7769 45.936L11.6591 46.2454ZM38.1121 46.0087C38.1121 46.0475 38.2591 46.3374 38.4388 46.653C38.6186 46.9686 39.3676 48.3613 40.1034 49.7479C41.4264 52.2411 47.0745 62.5923 47.348 63.0252C47.4259 63.1485 47.9511 64.0914 48.5151 65.1207L49.5407 66.9919V73.496V80H53.4623H57.3838V73.5054V67.0109L58.3493 65.2421C58.8803 64.2694 59.554 63.0448 59.8465 62.521C60.1389 61.9972 60.7465 60.8627 61.1967 60C62.1253 58.2204 65.0911 52.7752 65.2245 52.605C65.3467 52.449 68.8124 46.0639 68.8124 45.9946C68.8124 45.9637 66.7957 45.9384 64.3308 45.9384H59.8491L56.6224 52.3913L53.3955 58.8441L52.0806 56.1168C51.3574 54.6167 49.9481 51.7161 48.9488 49.671L47.1317 45.9526L42.6219 45.9455C40.1416 45.9416 38.1121 45.9701 38.1121 46.0087ZM17.5388 57.535C17.8863 58.6443 18.194 59.6735 18.2225 59.8223C18.2804 60.124 18.2384 59.9904 19.5622 64.0905C20.0896 65.724 20.5211 67.0979 20.5211 67.1438C20.5211 67.1895 18.832 67.2269 16.7676 67.2269C14.7032 67.2269 13.0141 67.1851 13.0141 67.134C13.0141 67.0829 13.6602 65.0534 14.45 62.6242C15.2398 60.1948 16.0844 57.5676 16.3268 56.7859C16.5693 56.004 16.7989 55.399 16.8373 55.4413C16.8756 55.4836 17.1913 56.4258 17.5388 57.535Z" fill="white"/>
</svg>
