<?xml version="1.0" standalone="no"?>
<!DOCTYPE svg PUBLIC "-//W3C//DTD SVG 20010904//EN"
 "http://www.w3.org/TR/2001/REC-SVG-20010904/DTD/svg10.dtd">
<svg version="1.0" xmlns="http://www.w3.org/2000/svg"
 width="200.000000pt" height="200.000000pt" viewBox="0 0 200.000000 200.000000"
 preserveAspectRatio="xMidYMid meet">
<metadata>
Created by potrace 1.14, written by Peter Selinger 2001-2017
</metadata>
<g transform="translate(0.000000,200.000000) scale(0.100000,-0.100000)"
fill="#000000" stroke="none">
<path d="M538 1805 c-2 -2 -18 -5 -36 -8 -58 -9 -155 -62 -215 -117 -178 -163
-293 -475 -282 -766 8 -203 79 -340 211 -404 42 -21 64 -24 149 -24 90 0 105
2 153 27 71 37 158 127 236 245 36 53 63 98 61 100 -2 2 -22 -17 -45 -42 -83
-89 -202 -150 -317 -162 -148 -15 -235 96 -234 299 1 49 3 92 5 95 2 4 6 30
10 58 15 129 100 318 178 397 131 132 269 105 419 -83 69 -86 220 -314 284
-430 154 -277 277 -429 388 -480 55 -25 72 -28 152 -26 72 1 99 6 138 26 175
88 236 310 182 669 -16 108 -90 291 -158 390 -77 113 -211 211 -312 226 l-40
7 43 -22 c104 -54 216 -249 263 -455 24 -109 36 -221 34 -323 -5 -216 -51
-304 -158 -304 -61 0 -114 39 -187 137 -40 54 -250 383 -250 392 0 10 -155
230 -214 303 -161 200 -255 265 -397 274 -32 2 -60 2 -61 1z"/>
<path d="M472 1350 c-102 -41 -105 -195 -5 -236 65 -28 128 -8 163 49 64 104
-44 232 -158 187z"/>
<path d="M1483 1345 c-77 -34 -97 -146 -36 -207 68 -68 189 -38 213 52 11 41
8 66 -12 107 -25 51 -107 74 -165 48z"/>
<path d="M847 626 c-37 -12 -73 -28 -79 -34 -18 -18 -13 -112 7 -155 9 -20 29
-47 43 -60 53 -46 109 -103 127 -130 31 -43 60 -43 92 1 14 20 54 64 89 97
105 103 143 185 109 243 -28 46 -59 55 -195 58 -109 3 -134 0 -193 -20z m115
-150 c11 -16 10 -23 -8 -40 -19 -20 -29 -20 -48 -1 -15 16 -12 44 7 57 12 7
39 -1 49 -16z m136 2 c15 -15 16 -45 1 -53 -21 -14 -59 5 -59 29 0 12 3 26 7
29 10 11 38 8 51 -5z"/>
</g>
</svg>
